:SAMPLES-PER-SECOND 30
:FULLY-SPECIFIED
:DEGREES
122
root  -0.406907 37.8253 0.510576 -173.881 -53.803 168.572
RightUpLeg  -20.8733 -2.46147 -19.0585
RightLeg  22.2788 10.0545 4.28292
RightFoot  0.147517 -1.0059 9.97779
RightToes  -1.74624e-010 0 -3.6325e-017
Spine  13.4022 -1.45543 14.8253
Spine1  -1.73788 2.25294 -13.2569
HEad  -33.7623 -49.5163 9.84396
LeftShoulder1  0.0781108 3.2844 -29.5016
LeftArm  -4.36319 9.06771 -40.0093
LeftForeArm  37.7347 -47.4986 -9.48243
LeftHand  -0.0329003 3.63912 0.924215
RightShoulder  -0.0788447 -4.00382 7.76329
RightArm  -55.0968 30.3868 1.53383
RightForeArm  69.6261 76.6981 41.2572
RightHand  -2.13991 16.3059 -11.809
LeftUpLeg  0.939708 -8.45838 4.66285
LeftLeg  23.8897 -1.70584 -0.493043
LeftFoot  -17.1768 -0.303164 -8.02297
LeftToes  -3.96543e-010 8.93632e-011 -2.58531e-011
123
root  -0.357333 37.9384 -0.189853 -172.594 -55.4385 168.156
RightUpLeg  -21.1411 -3.35654 -18.2681
RightLeg  23.4598 9.05014 4.06612
RightFoot  -0.701568 -0.813847 8.68065
RightToes  -1.74624e-010 0 -3.6325e-017
Spine  13.9133 -1.75197 16.3296
Spine1  -1.82044 2.14897 -12.9282
HEad  -36.1595 -50.8201 12.3273
LeftShoulder1  0.191723 2.96033 -29.1539
LeftArm  -3.57979 8.77265 -40.8879
LeftForeArm  38.116 -44.9664 -8.53958
LeftHand  -0.0326851 3.30285 0.843414
RightShoulder  -0.0997708 -4.23774 5.5374
RightArm  -57.6736 31.6113 -0.714567
RightForeArm  51.6787 68.5996 23.4658
RightHand  -2.1676 16.8697 -11.6167
LeftUpLeg  -1.3982 -7.24549 5.74501
LeftLeg  26.3326 -0.768913 -0.0690727
LeftFoot  -14.1196 -0.16651 -10.1656
LeftToes  -3.96543e-010 8.93632e-011 -2.58531e-011
124
root  -0.308448 38.144 -0.830241 -170.994 -55.9608 167.146
RightUpLeg  -21.1595 -2.87874 -17.9394
RightLeg  23.4264 7.82934 3.48511
RightFoot  -0.854087 -0.706737 7.62634
RightToes  -1.74624e-010 0 -3.6325e-017
Spine  14.9936 -1.7097 17.3289
Spine1  -2.60723 2.41782 -13.285
HEad  -36.6415 -52.0011 13.2004
LeftShoulder1  0.286831 2.68262 -28.7887
LeftArm  -2.72233 8.76401 -41.507
LeftForeArm  38.881 -42.8078 -7.77722
LeftHand  -0.0193058 3.20292 0.113344
RightShoulder  -0.0986745 -4.36169 3.20949
RightArm  -60.1442 33.6168 -3.54733
RightForeArm  38.4055 56.1248 13.4505
RightHand  -2.82325 18.848 -13.8778
LeftUpLeg  -3.12222 -3.46524 5.99494
LeftLeg  27.7247 1.04776 0.927079
LeftFoot  -9.94025 0.185055 -10.3752
LeftToes  -3.96543e-010 8.93632e-011 -2.58531e-011
125
root  -0.304704 38.357 -1.41916 -168.972 -55.9468 165.509
RightUpLeg  -21.1485 -2.4347 -18.1312
RightLeg  23.2053 7.17698 3.14466
RightFoot  -1.00001 -0.632108 6.90145
RightToes  -1.74624e-010 0 -3.6325e-017
Spine  15.5128 -1.55638 17.7186
Spine1  -2.61171 2.72427 -13.5415
HEad  -37.6698 -52.6011 14.2146
LeftShoulder1  0.382518 2.40245 -28.5947
LeftArm  -1.9015 9.228 -41.5823
LeftForeArm  39.089 -41.6587 -7.40829
LeftHand  -0.0184204 3.24155 -0.015333
RightShoulder  -0.0624713 -4.23571 0.0204757
RightArm  -63.6861 36.3096 -6.36695
RightForeArm  34.376 41.1845 7.66287
RightHand  -2.49725 19.6404 -11.9309
LeftUpLeg  -3.79454 0.938664 5.29352
LeftLeg  27.1288 0.532754 0.650239
LeftFoot  -7.77613 0.401757 -11.4227
LeftToes  -3.96543e-010 8.93632e-011 -2.58531e-011
126
root  -0.31038 38.5661 -1.94089 -166.85 -56.4901 164.041
RightUpLeg  -21.0309 -2.66389 -18.1881
RightLeg  22.646 6.46237 2.73505
RightFoot  -1.00028 -0.562021 6.12951
RightToes  -1.74624e-010 0 -3.6325e-017
Spine  15.7303 -1.79098 18.499
Spine1  -2.80817 2.6422 -14.119
HEad  -38.0717 -53.4829 15.0692
LeftShoulder1  0.398723 2.34037 -28.1314
LeftArm  -1.07618 9.86703 -41.4507
LeftForeArm  38.1115 -40.9737 -7.26671
LeftHand  -0.0175667 4.22211 -0.569759
RightShoulder  -0.0408514 -4.25264 -3.09178
RightArm  -63.7409 39.7513 -9.83341
RightForeArm  29.5843 25.6778 2.54033
RightHand  -2.03392 18.6188 -10.2227
LeftUpLeg  -4.516 3.7552 4.2343
LeftLeg  25.6323 -3.33947 -1.41725
LeftFoot  -7.7394 0.493895 -14.1965
LeftToes  -3.96543e-010 8.93632e-011 -2.58531e-011
127
root  -0.334077 38.7679 -2.4057 -164.838 -56.7888 162.792
RightUpLeg  -21.0145 -2.72714 -18.2068
RightLeg  21.8508 5.81041 2.34365
RightFoot  -0.864727 -0.505319 5.44332
RightToes  -1.74624e-010 0 -3.6325e-017
Spine  15.6506 -1.91769 19.5415
Spine1  -2.84821 2.72596 -15.1128
HEad  -38.7786 -54.2732 15.8654
LeftShoulder1  0.481909 2.0861 -27.853
LeftArm  -0.401152 10.1459 -41.1436
LeftForeArm  36.6663 -39.3348 -6.87147
LeftHand  -0.0178126 3.76873 -0.229027
RightShoulder  -0.0297508 -4.59181 -6.33857
RightArm  -50.8747 44.0011 -12.6989
RightForeArm  13.6966 10.3572 -4.93531
RightHand  -1.4567 17.4139 -7.81468
LeftUpLeg  -5.22193 5.26176 2.72869
LeftLeg  23.9323 -4.21476 -1.71696
LeftFoot  -7.22483 0.539856 -13.7696
LeftToes  -3.96543e-010 8.93632e-011 -2.58531e-011
128
root  -0.34421 38.9334 -2.834 -163.494 -56.9025 162.126
RightUpLeg  -21.0152 -2.48859 -17.9688
RightLeg  21.1602 5.15416 1.97958
RightFoot  -0.700833 -0.45715 4.85278
RightToes  -1.74624e-010 0 -3.6325e-017
Spine  15.8942 -1.96477 20.4693
Spine1  -3.1474 2.87116 -15.838
HEad  -38.5337 -54.7102 15.6287
LeftShoulder1  0.545864 1.87422 -27.3429
LeftArm  -0.248275 10.7583 -41.0808
LeftForeArm  35.7319 -38.2958 -6.63703
LeftHand  -0.0207363 3.83075 -0.361612
RightShoulder  -0.00548677 -4.77325 -8.93838
RightArm  -43.8447 47.7411 -15.5469
RightForeArm  7.53968 -2.19849 -4.57026
RightHand  -0.817784 15.3183 -5.04254
LeftUpLeg  -5.40109 7.09099 1.68036
LeftLeg  21.9346 -3.43259 -1.20232
LeftFoot  -6.32244 0.62181 -13.2911
LeftToes  -3.96543e-010 8.93632e-011 -2.58531e-011
129
root  -0.363399 39.0605 -3.23729 -162.293 -56.8546 161.504
RightUpLeg  -21.1364 -2.65973 -17.7232
RightLeg  20.7935 4.9766 1.86302
RightFoot  -0.76843 -0.402004 4.28458
RightToes  -1.74624e-010 0 -3.6325e-017
Spine  15.9233 -1.93797 21.1338
Spine1  -2.99709 3.08886 -16.471
HEad  -39.1957 -55.2333 16.7252
LeftShoulder1  0.584488 1.73399 -26.8588
LeftArm  -0.0399929 10.8302 -41.2324
LeftForeArm  34.6369 -36.7267 -6.27387
LeftHand  -0.0258801 4.15093 -0.328359
RightShoulder  0.0229477 -4.77694 -11.4046
RightArm  -39.9967 50.161 -16.8992
RightForeArm  3.74019 -5.86728 -1.75623
RightHand  -0.527152 12.1811 -3.89605
LeftUpLeg  -5.15755 9.92597 0.884177
LeftLeg  19.9704 -1.01718 -0.0805909
LeftFoot  -5.06761 0.73645 -12.8316
LeftToes  -3.96543e-010 8.93632e-011 -2.58531e-011
130
root  -0.35372 39.1621 -3.60888 -161.247 -57.1546 161.118
RightUpLeg  -21.2596 -2.77055 -17.3212
RightLeg  20.4527 4.53248 1.64082
RightFoot  -0.866317 -0.358925 3.84922
RightToes  -1.74624e-010 0 -3.6325e-017
Spine  16.0065 -1.81143 20.9559
Spine1  -3.05186 3.06821 -15.6815
HEad  -39.5355 -55.5059 17.3526
LeftShoulder1  0.608095 1.65766 -26.773
LeftArm  0.411655 10.9324 -41.3765
LeftForeArm  33.8032 -35.1764 -5.91539
LeftHand  -0.0227886 3.91569 0.176931
RightShoulder  0.0413297 -4.8792 -12.743
RightArm  -39.6618 50.493 -17.382
RightForeArm  2.24489 -5.63196 -1.05993
RightHand  -0.340793 12.1956 -2.67543
LeftUpLeg  -5.11097 12.5032 0.637866
LeftLeg  18.4366 0.847288 0.645712
LeftFoot  -3.89918 0.858588 -12.8052
LeftToes  -3.96543e-010 8.93632e-011 -2.58531e-011
131
root  -0.322719 39.2463 -3.94497 -160.19 -57.6139 160.657
RightUpLeg  -21.3695 -3.0848 -16.9331
RightLeg  20.1695 4.14485 1.44354
RightFoot  -0.959017 -0.325935 3.51212
RightToes  -1.74624e-010 0 -3.6325e-017
Spine  16.1908 -1.67262 20.4159
Spine1  -3.13557 2.94717 -14.331
HEad  -40.1563 -55.6932 17.7457
LeftShoulder1  0.591768 1.72492 -27.1055
LeftArm  1.49006 10.782 -41.251
LeftForeArm  32.4163 -33.9109 -5.67374
LeftHand  -0.0296028 4.49597 0.347609
RightShoulder  0.0546302 -5.28424 -12.8993
RightArm  -41.27 49.184 -18.1223
RightForeArm  2.82439 -5.54387 -2.27602
RightHand  -0.605001 14.261 -4.00346
LeftUpLeg  -5.06749 13.6572 0.552387
LeftLeg  16.963 2.26937 1.06131
LeftFoot  -2.67639 0.968763 -12.5387
LeftToes  -3.96543e-010 8.93632e-011 -2.58531e-011
132
root  -0.312568 39.297 -4.22575 -159.459 -58.1699 160.263
RightUpLeg  -21.334 -3.86335 -16.5194
RightLeg  20.1925 4.17526 1.46236
RightFoot  -1.17761 -0.275201 3.00338
RightToes  -1.74624e-010 0 -3.6325e-017
Spine  16.4059 -1.85121 20.1783
Spine1  -3.21983 2.63594 -13.547
HEad  -40.3369 -55.2263 17.8136
LeftShoulder1  0.567941 1.77357 -26.6505
LeftArm  1.96429 11.2119 -41.6696
LeftForeArm  32.5319 -32.9892 -5.43918
LeftHand  -0.0290715 4.36739 -0.229327
RightShoulder  0.0532344 -5.37892 -12.6622
RightArm  -42.7822 47.0537 -17.7872
RightForeArm  4.28748 -4.4394 -3.87933
RightHand  -0.947513 16.1939 -5.56195
LeftUpLeg  -4.80585 13.2666 0.656262
LeftLeg  15.725 3.77181 1.28779
LeftFoot  -1.76664 1.0571 -12.4522
LeftToes  -3.96543e-010 8.93632e-011 -2.58531e-011
133
root  -0.29079 39.3511 -4.47457 -158.719 -58.6543 159.96
RightUpLeg  -21.3456 -4.13357 -16.14
RightLeg  19.9594 3.8217 1.25598
RightFoot  -1.29613 -0.25409 2.7899
RightToes  -1.74624e-010 0 -3.6325e-017
Spine  16.2499 -1.87766 19.7516
Spine1  -2.85511 2.39419 -12.4537
HEad  -40.5668 -54.6262 17.6596
LeftShoulder1  0.546568 1.84232 -26.7307
LeftArm  2.42422 11.3644 -41.6773
LeftForeArm  32.2956 -32.4362 -5.31829
LeftHand  -0.0318115 4.62467 -0.167027
RightShoulder  0.0389498 -5.58055 -11.6042
RightArm  -48.9982 44.0434 -16.6915
RightForeArm  6.96564 2.907 -5.80148
RightHand  -1.38003 19.8835 -6.78022
LeftUpLeg  -4.66873 13.1858 0.992675
LeftLeg  14.5444 4.11169 1.00998
LeftFoot  -0.989268 1.16522 -12.7618
LeftToes  -3.96543e-010 8.93632e-011 -2.58531e-011
